<?xml version="1.0" encoding="UTF-8" standalone="no"?>
<!DOCTYPE svg PUBLIC "-//W3C//DTD SVG 1.1//EN"
 "http://www.w3.org/Graphics/SVG/1.1/DTD/svg11.dtd">
<!-- Generated by graphviz version 2.43.0 (0)
 -->
<!-- Title: %3 Pages: 1 -->
<svg width="618pt" height="592pt"
 viewBox="0.00 0.00 617.53 592.07" xmlns="http://www.w3.org/2000/svg" xmlns:xlink="http://www.w3.org/1999/xlink">
<g id="graph0" class="graph" transform="scale(1 1) rotate(0) translate(4 588.07)">
<title>%3</title>
<polygon fill="white" stroke="transparent" points="-4,4 -4,-588.07 613.53,-588.07 613.53,4 -4,4"/>
<!-- solve -->
<g id="node1" class="node">
<title>solve</title>
<ellipse fill="none" stroke="black" cx="552.96" cy="-37.48" rx="56.64" ry="37.45"/>
<text text-anchor="middle" x="552.96" y="-48.78" font-family="Times,serif" font-size="14.00">solve</text>
<text text-anchor="middle" x="552.96" y="-33.78" font-family="Times,serif" font-size="14.00">361.14s</text>
<text text-anchor="middle" x="552.96" y="-18.78" font-family="Times,serif" font-size="14.00">100.00%</text>
</g>
<!-- search -->
<g id="node2" class="node">
<title>search</title>
<ellipse fill="none" stroke="black" cx="502.05" cy="-88.39" rx="52.15" ry="37.45"/>
<text text-anchor="middle" x="502.05" y="-99.69" font-family="Times,serif" font-size="14.00">search</text>
<text text-anchor="middle" x="502.05" y="-84.69" font-family="Times,serif" font-size="14.00">358.25s</text>
<text text-anchor="middle" x="502.05" y="-69.69" font-family="Times,serif" font-size="14.00">99.20%</text>
</g>
<!-- solve&#45;&gt;search -->
<g id="edge1" class="edge">
<title>solve&#45;&gt;search</title>
<path fill="none" stroke="black" d="M521.58,-68.85C521.5,-68.93 521.42,-69.01 521.34,-69.1"/>
<polygon fill="black" stroke="black" points="525.69,-59.79 521.09,-69.34 530.64,-64.74 525.69,-59.79"/>
</g>
<!-- stable -->
<g id="node3" class="node">
<title>stable</title>
<ellipse fill="none" stroke="black" cx="451.13" cy="-139.3" rx="52.15" ry="37.45"/>
<text text-anchor="middle" x="451.13" y="-150.6" font-family="Times,serif" font-size="14.00">stable</text>
<text text-anchor="middle" x="451.13" y="-135.6" font-family="Times,serif" font-size="14.00">235.70s</text>
<text text-anchor="middle" x="451.13" y="-120.6" font-family="Times,serif" font-size="14.00">65.26%</text>
</g>
<!-- search&#45;&gt;stable -->
<g id="edge2" class="edge">
<title>search&#45;&gt;stable</title>
<path fill="none" stroke="black" d="M471.55,-118.89C471.51,-118.93 471.46,-118.97 471.42,-119.01"/>
<polygon fill="black" stroke="black" points="475.89,-109.59 471.29,-119.14 480.84,-114.54 475.89,-109.59"/>
</g>
<!-- unstable -->
<g id="node4" class="node">
<title>unstable</title>
<ellipse fill="none" stroke="black" cx="400.22" cy="-190.21" rx="55.31" ry="37.45"/>
<text text-anchor="middle" x="400.22" y="-201.51" font-family="Times,serif" font-size="14.00">unstable</text>
<text text-anchor="middle" x="400.22" y="-186.51" font-family="Times,serif" font-size="14.00">118.25s</text>
<text text-anchor="middle" x="400.22" y="-171.51" font-family="Times,serif" font-size="14.00">32.74%</text>
</g>
<!-- stable&#45;&gt;unstable -->
<g id="edge3" class="edge">
<title>stable&#45;&gt;unstable</title>
<path fill="none" stroke="black" d="M420.64,-169.8C420.59,-169.84 420.55,-169.88 420.51,-169.92"/>
<polygon fill="black" stroke="black" points="424.98,-160.5 420.38,-170.05 429.93,-165.45 424.98,-160.5"/>
</g>
<!-- walk -->
<g id="node5" class="node">
<title>walk</title>
<ellipse fill="none" stroke="black" cx="349.31" cy="-241.12" rx="43.68" ry="37.45"/>
<text text-anchor="middle" x="349.31" y="-252.42" font-family="Times,serif" font-size="14.00">walk</text>
<text text-anchor="middle" x="349.31" y="-237.42" font-family="Times,serif" font-size="14.00">4.30s</text>
<text text-anchor="middle" x="349.31" y="-222.42" font-family="Times,serif" font-size="14.00">1.19%</text>
</g>
<!-- unstable&#45;&gt;walk -->
<g id="edge4" class="edge">
<title>unstable&#45;&gt;walk</title>
<path fill="none" stroke="black" d="M369.14,-221.29C369.06,-221.38 368.97,-221.46 368.89,-221.54"/>
<polygon fill="black" stroke="black" points="373.24,-212.24 368.64,-221.79 378.19,-217.19 373.24,-212.24"/>
</g>
<!-- simplify -->
<g id="node6" class="node">
<title>simplify</title>
<ellipse fill="none" stroke="black" cx="298.4" cy="-292.04" rx="52.15" ry="37.45"/>
<text text-anchor="middle" x="298.4" y="-303.34" font-family="Times,serif" font-size="14.00">simplify</text>
<text text-anchor="middle" x="298.4" y="-288.34" font-family="Times,serif" font-size="14.00">2.89s</text>
<text text-anchor="middle" x="298.4" y="-273.34" font-family="Times,serif" font-size="14.00">0.80%</text>
</g>
<!-- walk&#45;&gt;simplify -->
<g id="edge5" class="edge">
<title>walk&#45;&gt;simplify</title>
<path fill="none" stroke="black" d="M320.58,-269.85C320.54,-269.9 320.49,-269.94 320.45,-269.99"/>
<polygon fill="black" stroke="black" points="324.91,-260.58 320.31,-270.12 329.86,-265.53 324.91,-260.58"/>
</g>
<!-- subsume -->
<g id="node7" class="node">
<title>subsume</title>
<ellipse fill="none" stroke="black" cx="247.49" cy="-342.95" rx="56.64" ry="37.45"/>
<text text-anchor="middle" x="247.49" y="-354.25" font-family="Times,serif" font-size="14.00">subsume</text>
<text text-anchor="middle" x="247.49" y="-339.25" font-family="Times,serif" font-size="14.00">1.53s</text>
<text text-anchor="middle" x="247.49" y="-324.25" font-family="Times,serif" font-size="14.00">0.42%</text>
</g>
<!-- simplify&#45;&gt;subsume -->
<g id="edge6" class="edge">
<title>simplify&#45;&gt;subsume</title>
<path fill="none" stroke="black" d="M267.9,-322.53C267.86,-322.57 267.82,-322.62 267.77,-322.66"/>
<polygon fill="black" stroke="black" points="272.25,-313.24 267.65,-322.79 277.2,-318.19 272.25,-313.24"/>
</g>
<!-- vivify -->
<g id="node8" class="node">
<title>vivify</title>
<ellipse fill="none" stroke="black" cx="196.58" cy="-393.86" rx="43.68" ry="37.45"/>
<text text-anchor="middle" x="196.58" y="-405.16" font-family="Times,serif" font-size="14.00">vivify</text>
<text text-anchor="middle" x="196.58" y="-390.16" font-family="Times,serif" font-size="14.00">0.81s</text>
<text text-anchor="middle" x="196.58" y="-375.16" font-family="Times,serif" font-size="14.00">0.22%</text>
</g>
<!-- subsume&#45;&gt;vivify -->
<g id="edge7" class="edge">
<title>subsume&#45;&gt;vivify</title>
<path fill="none" stroke="black" d="M216.11,-374.32C216.03,-374.4 215.95,-374.48 215.87,-374.57"/>
<polygon fill="black" stroke="black" points="220.22,-365.26 215.62,-374.81 225.17,-370.21 220.22,-365.26"/>
</g>
<!-- probe -->
<g id="node9" class="node">
<title>probe</title>
<ellipse fill="none" stroke="black" cx="145.66" cy="-444.77" rx="43.68" ry="37.45"/>
<text text-anchor="middle" x="145.66" y="-456.07" font-family="Times,serif" font-size="14.00">probe</text>
<text text-anchor="middle" x="145.66" y="-441.07" font-family="Times,serif" font-size="14.00">0.36s</text>
<text text-anchor="middle" x="145.66" y="-426.07" font-family="Times,serif" font-size="14.00">0.10%</text>
</g>
<!-- vivify&#45;&gt;probe -->
<g id="edge8" class="edge">
<title>vivify&#45;&gt;probe</title>
<path fill="none" stroke="black" d="M167.85,-422.59C167.8,-422.63 167.76,-422.68 167.71,-422.72"/>
<polygon fill="black" stroke="black" points="172.17,-413.31 167.58,-422.86 177.12,-418.26 172.17,-413.31"/>
</g>
<!-- ternary -->
<g id="node10" class="node">
<title>ternary</title>
<ellipse fill="none" stroke="black" cx="94.75" cy="-495.68" rx="49.49" ry="37.45"/>
<text text-anchor="middle" x="94.75" y="-506.98" font-family="Times,serif" font-size="14.00">ternary</text>
<text text-anchor="middle" x="94.75" y="-491.98" font-family="Times,serif" font-size="14.00">0.07s</text>
<text text-anchor="middle" x="94.75" y="-476.98" font-family="Times,serif" font-size="14.00">0.02%</text>
</g>
<!-- probe&#45;&gt;ternary -->
<g id="edge9" class="edge">
<title>probe&#45;&gt;ternary</title>
<path fill="none" stroke="black" d="M116.93,-473.5C116.89,-473.54 116.84,-473.59 116.8,-473.63"/>
<polygon fill="black" stroke="black" points="121.26,-464.22 116.66,-473.77 126.21,-469.17 121.26,-464.22"/>
</g>
<!-- elim -->
<g id="node11" class="node">
<title>elim</title>
<ellipse fill="none" stroke="black" cx="552.96" cy="-546.59" rx="43.68" ry="37.45"/>
<text text-anchor="middle" x="552.96" y="-557.89" font-family="Times,serif" font-size="14.00">elim</text>
<text text-anchor="middle" x="552.96" y="-542.89" font-family="Times,serif" font-size="14.00">0.01s</text>
<text text-anchor="middle" x="552.96" y="-527.89" font-family="Times,serif" font-size="14.00">0.00%</text>
</g>
<!-- ternary&#45;&gt;elim -->
<g id="edge10" class="edge">
<title>ternary&#45;&gt;elim</title>
<path fill="none" stroke="black" d="M143.79,-501.13C230.37,-510.75 409.66,-530.67 499.38,-540.64"/>
<polygon fill="black" stroke="black" points="499.02,-544.12 509.34,-541.75 499.79,-537.16 499.02,-544.12"/>
</g>
<!-- parse -->
<g id="node12" class="node">
<title>parse</title>
<ellipse fill="none" stroke="black" cx="43.84" cy="-546.59" rx="43.68" ry="37.45"/>
<text text-anchor="middle" x="43.84" y="-557.89" font-family="Times,serif" font-size="14.00">parse</text>
<text text-anchor="middle" x="43.84" y="-542.89" font-family="Times,serif" font-size="14.00">0.00s</text>
<text text-anchor="middle" x="43.84" y="-527.89" font-family="Times,serif" font-size="14.00">0.00%</text>
</g>
<!-- ternary&#45;&gt;parse -->
<g id="edge11" class="edge">
<title>ternary&#45;&gt;parse</title>
<path fill="none" stroke="black" d="M64.84,-525.59C64.8,-525.64 64.76,-525.68 64.71,-525.72"/>
<polygon fill="black" stroke="black" points="69.18,-516.3 64.58,-525.85 74.13,-521.25 69.18,-516.3"/>
</g>
<!-- lucky -->
<g id="node13" class="node">
<title>lucky</title>
<ellipse fill="none" stroke="black" cx="43.84" cy="-37.48" rx="43.68" ry="37.45"/>
<text text-anchor="middle" x="43.84" y="-48.78" font-family="Times,serif" font-size="14.00">lucky</text>
<text text-anchor="middle" x="43.84" y="-33.78" font-family="Times,serif" font-size="14.00">0.00s</text>
<text text-anchor="middle" x="43.84" y="-18.78" font-family="Times,serif" font-size="14.00">0.00%</text>
</g>
<!-- ternary&#45;&gt;lucky -->
<g id="edge12" class="edge">
<title>ternary&#45;&gt;lucky</title>
<path fill="none" stroke="black" d="M90.59,-458.18C81.37,-375.25 59.27,-176.37 49.11,-84.93"/>
<polygon fill="black" stroke="black" points="52.58,-84.4 47.99,-74.85 45.62,-85.17 52.58,-84.4"/>
</g>
</g>
</svg>
